<svg width="19" height="19" viewBox="0 0 19 19" fill="none" xmlns="http://www.w3.org/2000/svg">
<path d="M15.7558 10.9941L17.0058 11.6983C17.134 11.771 17.2407 11.8764 17.3149 12.0037C17.3891 12.1311 17.4282 12.2759 17.4282 12.4233C17.4282 12.5707 17.3891 12.7155 17.3149 12.8428C17.2407 12.9702 17.134 13.0756 17.0058 13.1483L9.92246 17.2066C9.66909 17.3529 9.38168 17.4299 9.08912 17.4299C8.79656 17.4299 8.50916 17.3529 8.25579 17.2066L1.17246 13.1483C1.04421 13.0756 0.937535 12.9702 0.863319 12.8428C0.789103 12.7155 0.75 12.5707 0.75 12.4233C0.75 12.2759 0.789103 12.1311 0.863319 12.0037C0.937535 11.8764 1.04421 11.771 1.17246 11.6983L2.42246 10.9941M9.92246 10.54C9.66909 10.6862 9.38168 10.7632 9.08912 10.7632C8.79656 10.7632 8.50916 10.6862 8.25579 10.54L1.17246 6.48162C1.04421 6.40894 0.937535 6.30354 0.863319 6.17618C0.789103 6.04881 0.75 5.90404 0.75 5.75662C0.75 5.60921 0.789103 5.46444 0.863319 5.33707C0.937535 5.20971 1.04421 5.10431 1.17246 5.03162L8.25579 0.973291C8.50916 0.82701 8.79656 0.75 9.08912 0.75C9.38168 0.75 9.66909 0.82701 9.92246 0.973291L17.0058 5.03162C17.134 5.10431 17.2407 5.20971 17.3149 5.33707C17.3891 5.46444 17.4282 5.60921 17.4282 5.75662C17.4282 5.90404 17.3891 6.04881 17.3149 6.17618C17.2407 6.30354 17.134 6.40894 17.0058 6.48162L9.92246 10.54Z" stroke="#64748B" stroke-width="1.5" stroke-linecap="round" stroke-linejoin="round"/>
</svg>
