<svg width="20" height="20" viewBox="0 0 20 20" fill="none" xmlns="http://www.w3.org/2000/svg">
<path d="M18.6388 14.2444L11.5954 10.4195C10.2947 9.71312 8.72353 9.71312 7.42283 10.4195L0.379413 14.2444C-0.122477 14.517 -0.127471 15.2339 0.370575 15.5133L7.3698 19.441C8.69811 20.1864 10.3201 20.1864 11.6484 19.441L18.6477 15.5133C19.1457 15.2339 19.1407 14.517 18.6388 14.2444Z" fill="#B0C4FD"/>
<path d="M4.02276 7.35259C3.37707 6.85061 3.72251 5.34869 4.54119 5.34869H14.3446C15.1633 5.34869 15.5087 6.85061 14.863 7.35259C13.8926 8.10703 13.1155 9.04407 13.1155 10.1105C13.1155 11.9787 15.5801 13.4499 17.2659 14.2378C17.8411 14.5066 17.8982 15.3623 17.3393 15.6633L11.354 18.8868C10.2759 19.4674 8.97714 19.4674 7.89906 18.8868L1.873 15.6413C1.32042 15.3437 1.36706 14.4997 1.92778 14.2177C3.50352 13.4251 5.77026 11.9629 5.77026 10.1105C5.77026 9.04407 4.9932 8.10703 4.02276 7.35259Z" fill="url(#paint0_linear_2025_314)"/>
<path d="M18.6388 4.35471L11.5954 0.529762C10.2947 -0.176587 8.72353 -0.176587 7.42283 0.529762L0.379413 4.35471C-0.122477 4.62726 -0.127471 5.34416 0.370575 5.62364L7.3698 9.55128C8.69811 10.2967 10.3201 10.2967 11.6484 9.55128L18.6477 5.62364C19.1457 5.34416 19.1407 4.62726 18.6388 4.35471Z" fill="#1B1464"/>
<defs>
<linearGradient id="paint0_linear_2025_314" x1="10.1775" y1="6.81385" x2="10.1494" y2="15.0484" gradientUnits="userSpaceOnUse">
<stop stop-color="#0022CF"/>
<stop offset="1" stop-color="#B0C4FD"/>
</linearGradient>
</defs>
</svg>
