<svg width="20" height="20" viewBox="0 0 20 20" fill="none" xmlns="http://www.w3.org/2000/svg">
<path d="M16.7 5.68333L11.9 2.325C10.5917 1.40833 8.58333 1.45833 7.325 2.43333L3.15 5.69167C2.31667 6.34167 1.65833 7.675 1.65833 8.725V14.475C1.65833 16.6 3.38333 18.3333 5.50833 18.3333H14.4917C16.6167 18.3333 18.3417 16.6083 18.3417 14.4833V8.83333C18.3417 7.70833 17.6167 6.325 16.7 5.68333ZM11.625 16C11.625 16 10.3418 16.0001 10.0001 16.0001C9.65846 16.0001 8.375 16 8.375 16V12.0001C8.375 12.0001 9.65846 12.0001 10.0001 12.0001C10.3418 12.0001 11.625 12.0001 11.625 12.0001V16Z" fill="#1B1464"/>
</svg>
